<mxfile host="app.diagrams.net" modified="2023-08-06T10:57:19.170Z" agent="Mozilla/5.0 (Macintosh; Intel Mac OS X 10_15_7) AppleWebKit/605.1.15 (KHTML, like Gecko) Version/16.5.2 Safari/605.1.15" etag="UuhqImRqjMBDOsCbJSQh" version="21.6.6" type="github">
  <diagram name="Page-1" id="55a83fd1-7818-8e21-69c5-c3457e3827bb">
    <mxGraphModel dx="1199" dy="954" grid="1" gridSize="10" guides="1" tooltips="1" connect="1" arrows="1" fold="1" page="1" pageScale="1" pageWidth="1100" pageHeight="850" background="none" math="0" shadow="0">
      <root>
        <mxCell id="0" />
        <mxCell id="1" parent="0" />
        <mxCell id="z33nc2aB1j3jtYtiSZTR-7" value="" style="edgeStyle=orthogonalEdgeStyle;rounded=0;orthogonalLoop=1;jettySize=auto;html=1;" edge="1" parent="1" source="69ecfefc5c41e42c-2" target="z33nc2aB1j3jtYtiSZTR-3">
          <mxGeometry relative="1" as="geometry" />
        </mxCell>
        <mxCell id="z33nc2aB1j3jtYtiSZTR-8" value="" style="edgeStyle=orthogonalEdgeStyle;rounded=0;orthogonalLoop=1;jettySize=auto;html=1;" edge="1" parent="1" source="69ecfefc5c41e42c-2" target="z33nc2aB1j3jtYtiSZTR-4">
          <mxGeometry relative="1" as="geometry" />
        </mxCell>
        <mxCell id="69ecfefc5c41e42c-2" value="Internet" style="image;html=1;labelBackgroundColor=#ffffff;image=img/lib/clip_art/networking/Cloud_128x128.png;rounded=1;shadow=0;comic=0;strokeWidth=2;fontSize=22;labelPosition=center;verticalLabelPosition=top;align=center;verticalAlign=bottom;" parent="1" vertex="1">
          <mxGeometry x="470" y="40" width="80" height="80" as="geometry" />
        </mxCell>
        <mxCell id="69ecfefc5c41e42c-19" style="edgeStyle=none;rounded=0;html=1;labelBackgroundColor=none;endArrow=none;strokeWidth=2;fontFamily=Verdana;fontSize=22" parent="1" target="69ecfefc5c41e42c-2" edge="1">
          <mxGeometry relative="1" as="geometry">
            <mxPoint x="250" y="166.66666666666674" as="sourcePoint" />
          </mxGeometry>
        </mxCell>
        <mxCell id="z33nc2aB1j3jtYtiSZTR-3" value="" style="image;html=1;image=img/lib/clip_art/computers/Server_128x128.png" vertex="1" parent="1">
          <mxGeometry x="470" y="210" width="80" height="80" as="geometry" />
        </mxCell>
        <mxCell id="z33nc2aB1j3jtYtiSZTR-4" value="" style="image;html=1;image=img/lib/clip_art/computers/Server_Rack_128x128.png" vertex="1" parent="1">
          <mxGeometry x="870" y="40" width="80" height="80" as="geometry" />
        </mxCell>
        <mxCell id="z33nc2aB1j3jtYtiSZTR-5" value="" style="image;html=1;image=img/lib/clip_art/computers/Server_Rack_128x128.png" vertex="1" parent="1">
          <mxGeometry x="200" y="150" width="80" height="80" as="geometry" />
        </mxCell>
        <mxCell id="z33nc2aB1j3jtYtiSZTR-9" value="10.44.21.0/24" style="text;strokeColor=none;align=center;fillColor=none;html=1;verticalAlign=middle;whiteSpace=wrap;rounded=0;" vertex="1" parent="1">
          <mxGeometry x="210" y="230" width="60" height="30" as="geometry" />
        </mxCell>
        <mxCell id="z33nc2aB1j3jtYtiSZTR-10" value="10.44.22.0/24" style="text;strokeColor=none;align=center;fillColor=none;html=1;verticalAlign=middle;whiteSpace=wrap;rounded=0;" vertex="1" parent="1">
          <mxGeometry x="880" y="120" width="60" height="30" as="geometry" />
        </mxCell>
        <mxCell id="z33nc2aB1j3jtYtiSZTR-11" value="10.44.20.0/24" style="text;strokeColor=none;align=center;fillColor=none;html=1;verticalAlign=middle;whiteSpace=wrap;rounded=0;" vertex="1" parent="1">
          <mxGeometry x="480" y="280" width="60" height="30" as="geometry" />
        </mxCell>
        <mxCell id="z33nc2aB1j3jtYtiSZTR-12" value="" style="image;html=1;image=img/lib/clip_art/networking/Firewall_128x128.png" vertex="1" parent="1">
          <mxGeometry x="400" y="310" width="80" height="80" as="geometry" />
        </mxCell>
        <mxCell id="z33nc2aB1j3jtYtiSZTR-13" value="" style="image;html=1;image=img/lib/clip_art/networking/Firewall_128x128.png" vertex="1" parent="1">
          <mxGeometry x="550" y="310" width="80" height="80" as="geometry" />
        </mxCell>
        <mxCell id="z33nc2aB1j3jtYtiSZTR-14" value="" style="image;html=1;image=img/lib/clip_art/networking/Firewall_128x128.png" vertex="1" parent="1">
          <mxGeometry x="70" y="280" width="80" height="80" as="geometry" />
        </mxCell>
        <mxCell id="z33nc2aB1j3jtYtiSZTR-15" value="" style="image;html=1;image=img/lib/clip_art/networking/Firewall_128x128.png" vertex="1" parent="1">
          <mxGeometry x="180" y="280" width="80" height="80" as="geometry" />
        </mxCell>
        <mxCell id="z33nc2aB1j3jtYtiSZTR-16" value="" style="image;html=1;image=img/lib/clip_art/networking/Firewall_128x128.png" vertex="1" parent="1">
          <mxGeometry x="810" y="160" width="80" height="80" as="geometry" />
        </mxCell>
        <mxCell id="z33nc2aB1j3jtYtiSZTR-17" value="" style="image;html=1;image=img/lib/clip_art/networking/Firewall_128x128.png" vertex="1" parent="1">
          <mxGeometry x="940" y="160" width="80" height="80" as="geometry" />
        </mxCell>
        <mxCell id="z33nc2aB1j3jtYtiSZTR-24" value="" style="image;html=1;image=img/lib/clip_art/computers/Database_128x128.png" vertex="1" parent="1">
          <mxGeometry x="10" y="510" width="60" height="60" as="geometry" />
        </mxCell>
        <mxCell id="z33nc2aB1j3jtYtiSZTR-25" value="" style="image;html=1;image=img/lib/clip_art/computers/Database_128x128.png" vertex="1" parent="1">
          <mxGeometry x="110" y="510" width="70" height="60" as="geometry" />
        </mxCell>
        <mxCell id="z33nc2aB1j3jtYtiSZTR-26" value="" style="image;html=1;image=img/lib/clip_art/computers/Database_128x128.png" vertex="1" parent="1">
          <mxGeometry x="220" y="510" width="70" height="60" as="geometry" />
        </mxCell>
        <mxCell id="z33nc2aB1j3jtYtiSZTR-28" value="" style="image;html=1;image=img/lib/clip_art/computers/Database_128x128.png" vertex="1" parent="1">
          <mxGeometry x="960" y="370" width="80" height="80" as="geometry" />
        </mxCell>
        <mxCell id="z33nc2aB1j3jtYtiSZTR-29" value="" style="fontColor=#0066CC;verticalAlign=top;verticalLabelPosition=bottom;labelPosition=center;align=center;html=1;outlineConnect=0;fillColor=#CCCCCC;strokeColor=#6881B3;gradientColor=none;gradientDirection=north;strokeWidth=2;shape=mxgraph.networks.load_balancer;" vertex="1" parent="1">
          <mxGeometry x="40" y="420" width="100" height="30" as="geometry" />
        </mxCell>
        <mxCell id="z33nc2aB1j3jtYtiSZTR-31" value="" style="fontColor=#0066CC;verticalAlign=top;verticalLabelPosition=bottom;labelPosition=center;align=center;html=1;outlineConnect=0;fillColor=#CCCCCC;strokeColor=#6881B3;gradientColor=none;gradientDirection=north;strokeWidth=2;shape=mxgraph.networks.load_balancer;" vertex="1" parent="1">
          <mxGeometry x="190" y="420" width="100" height="30" as="geometry" />
        </mxCell>
        <mxCell id="z33nc2aB1j3jtYtiSZTR-32" value="" style="fontColor=#0066CC;verticalAlign=top;verticalLabelPosition=bottom;labelPosition=center;align=center;html=1;outlineConnect=0;fillColor=#CCCCCC;strokeColor=#6881B3;gradientColor=none;gradientDirection=north;strokeWidth=2;shape=mxgraph.networks.load_balancer;" vertex="1" parent="1">
          <mxGeometry x="380" y="450" width="100" height="30" as="geometry" />
        </mxCell>
        <mxCell id="z33nc2aB1j3jtYtiSZTR-33" value="" style="fontColor=#0066CC;verticalAlign=top;verticalLabelPosition=bottom;labelPosition=center;align=center;html=1;outlineConnect=0;fillColor=#CCCCCC;strokeColor=#6881B3;gradientColor=none;gradientDirection=north;strokeWidth=2;shape=mxgraph.networks.load_balancer;" vertex="1" parent="1">
          <mxGeometry x="540" y="460" width="100" height="30" as="geometry" />
        </mxCell>
        <mxCell id="z33nc2aB1j3jtYtiSZTR-34" value="" style="image;html=1;image=img/lib/clip_art/computers/Database_128x128.png" vertex="1" parent="1">
          <mxGeometry x="800" y="370" width="80" height="80" as="geometry" />
        </mxCell>
        <mxCell id="z33nc2aB1j3jtYtiSZTR-35" value="" style="fontColor=#0066CC;verticalAlign=top;verticalLabelPosition=bottom;labelPosition=center;align=center;html=1;outlineConnect=0;fillColor=#CCCCCC;strokeColor=#6881B3;gradientColor=none;gradientDirection=north;strokeWidth=2;shape=mxgraph.networks.load_balancer;" vertex="1" parent="1">
          <mxGeometry x="790" y="290" width="100" height="30" as="geometry" />
        </mxCell>
        <mxCell id="z33nc2aB1j3jtYtiSZTR-36" value="" style="fontColor=#0066CC;verticalAlign=top;verticalLabelPosition=bottom;labelPosition=center;align=center;html=1;outlineConnect=0;fillColor=#CCCCCC;strokeColor=#6881B3;gradientColor=none;gradientDirection=north;strokeWidth=2;shape=mxgraph.networks.load_balancer;" vertex="1" parent="1">
          <mxGeometry x="950" y="290" width="100" height="30" as="geometry" />
        </mxCell>
        <mxCell id="z33nc2aB1j3jtYtiSZTR-37" value="" style="fontColor=#0066CC;verticalAlign=top;verticalLabelPosition=bottom;labelPosition=center;align=center;html=1;outlineConnect=0;fillColor=#CCCCCC;strokeColor=#6881B3;gradientColor=none;gradientDirection=north;strokeWidth=2;shape=mxgraph.networks.web_server;" vertex="1" parent="1">
          <mxGeometry x="5" y="620" width="70" height="55" as="geometry" />
        </mxCell>
        <mxCell id="z33nc2aB1j3jtYtiSZTR-38" value="" style="fontColor=#0066CC;verticalAlign=top;verticalLabelPosition=bottom;labelPosition=center;align=center;html=1;outlineConnect=0;fillColor=#CCCCCC;strokeColor=#6881B3;gradientColor=none;gradientDirection=north;strokeWidth=2;shape=mxgraph.networks.web_server;" vertex="1" parent="1">
          <mxGeometry x="125" y="620" width="60" height="55" as="geometry" />
        </mxCell>
        <mxCell id="z33nc2aB1j3jtYtiSZTR-39" value="" style="fontColor=#0066CC;verticalAlign=top;verticalLabelPosition=bottom;labelPosition=center;align=center;html=1;outlineConnect=0;fillColor=#CCCCCC;strokeColor=#6881B3;gradientColor=none;gradientDirection=north;strokeWidth=2;shape=mxgraph.networks.web_server;" vertex="1" parent="1">
          <mxGeometry x="240" y="610" width="60" height="60" as="geometry" />
        </mxCell>
        <mxCell id="z33nc2aB1j3jtYtiSZTR-40" value="" style="fontColor=#0066CC;verticalAlign=top;verticalLabelPosition=bottom;labelPosition=center;align=center;html=1;outlineConnect=0;fillColor=#CCCCCC;strokeColor=#6881B3;gradientColor=none;gradientDirection=north;strokeWidth=2;shape=mxgraph.networks.virtual_server;" vertex="1" parent="1">
          <mxGeometry x="860" y="525" width="70" height="70" as="geometry" />
        </mxCell>
        <mxCell id="z33nc2aB1j3jtYtiSZTR-41" value="" style="fontColor=#0066CC;verticalAlign=top;verticalLabelPosition=bottom;labelPosition=center;align=center;html=1;outlineConnect=0;fillColor=#CCCCCC;strokeColor=#6881B3;gradientColor=none;gradientDirection=north;strokeWidth=2;shape=mxgraph.networks.web_server;" vertex="1" parent="1">
          <mxGeometry x="980" y="530" width="70" height="65" as="geometry" />
        </mxCell>
        <mxCell id="z33nc2aB1j3jtYtiSZTR-42" value="" style="fontColor=#0066CC;verticalAlign=top;verticalLabelPosition=bottom;labelPosition=center;align=center;html=1;outlineConnect=0;fillColor=#CCCCCC;strokeColor=#6881B3;gradientColor=none;gradientDirection=north;strokeWidth=2;shape=mxgraph.networks.virtual_server;" vertex="1" parent="1">
          <mxGeometry x="740" y="520" width="70" height="80" as="geometry" />
        </mxCell>
        <mxCell id="z33nc2aB1j3jtYtiSZTR-43" value="" style="image;html=1;image=img/lib/clip_art/computers/Database_Move_Stack_128x128.png" vertex="1" parent="1">
          <mxGeometry y="720" width="70" height="60" as="geometry" />
        </mxCell>
        <mxCell id="z33nc2aB1j3jtYtiSZTR-44" value="" style="image;html=1;image=img/lib/clip_art/computers/Database_Move_Stack_128x128.png" vertex="1" parent="1">
          <mxGeometry x="120" y="720" width="70" height="60" as="geometry" />
        </mxCell>
        <mxCell id="z33nc2aB1j3jtYtiSZTR-46" value="" style="image;html=1;image=img/lib/clip_art/computers/Database_Move_Stack_128x128.png" vertex="1" parent="1">
          <mxGeometry x="730" y="640" width="80" height="80" as="geometry" />
        </mxCell>
        <mxCell id="z33nc2aB1j3jtYtiSZTR-47" value="" style="image;html=1;image=img/lib/clip_art/computers/Database_Move_Stack_128x128.png" vertex="1" parent="1">
          <mxGeometry x="920" y="640" width="80" height="80" as="geometry" />
        </mxCell>
        <mxCell id="z33nc2aB1j3jtYtiSZTR-48" value="10.44.21.1" style="text;strokeColor=none;align=center;fillColor=none;html=1;verticalAlign=middle;whiteSpace=wrap;rounded=0;" vertex="1" parent="1">
          <mxGeometry x="65" y="360" width="60" height="30" as="geometry" />
        </mxCell>
        <mxCell id="z33nc2aB1j3jtYtiSZTR-49" value="10.44.21.2" style="text;strokeColor=none;align=center;fillColor=none;html=1;verticalAlign=middle;whiteSpace=wrap;rounded=0;" vertex="1" parent="1">
          <mxGeometry x="185" y="360" width="60" height="30" as="geometry" />
        </mxCell>
        <mxCell id="z33nc2aB1j3jtYtiSZTR-50" value="10.44.20.1" style="text;strokeColor=none;align=center;fillColor=none;html=1;verticalAlign=middle;whiteSpace=wrap;rounded=0;" vertex="1" parent="1">
          <mxGeometry x="390" y="395" width="60" height="30" as="geometry" />
        </mxCell>
        <mxCell id="z33nc2aB1j3jtYtiSZTR-51" value="10.44.20.2" style="text;strokeColor=none;align=center;fillColor=none;html=1;verticalAlign=middle;whiteSpace=wrap;rounded=0;" vertex="1" parent="1">
          <mxGeometry x="550" y="400" width="60" height="30" as="geometry" />
        </mxCell>
        <mxCell id="z33nc2aB1j3jtYtiSZTR-52" value="10.44.22.1" style="text;strokeColor=none;align=center;fillColor=none;html=1;verticalAlign=middle;whiteSpace=wrap;rounded=0;" vertex="1" parent="1">
          <mxGeometry x="810" y="250" width="60" height="20" as="geometry" />
        </mxCell>
        <mxCell id="z33nc2aB1j3jtYtiSZTR-53" value="10.44.22.2" style="text;strokeColor=none;align=center;fillColor=none;html=1;verticalAlign=middle;whiteSpace=wrap;rounded=0;" vertex="1" parent="1">
          <mxGeometry x="960" y="245" width="60" height="30" as="geometry" />
        </mxCell>
        <mxCell id="z33nc2aB1j3jtYtiSZTR-54" value="10.44.21.3" style="text;strokeColor=none;align=center;fillColor=none;html=1;verticalAlign=middle;whiteSpace=wrap;rounded=0;" vertex="1" parent="1">
          <mxGeometry x="50" y="460" width="60" height="30" as="geometry" />
        </mxCell>
        <mxCell id="z33nc2aB1j3jtYtiSZTR-55" value="10.44.21.4" style="text;strokeColor=none;align=center;fillColor=none;html=1;verticalAlign=middle;whiteSpace=wrap;rounded=0;" vertex="1" parent="1">
          <mxGeometry x="210" y="450" width="60" height="30" as="geometry" />
        </mxCell>
        <mxCell id="z33nc2aB1j3jtYtiSZTR-56" value="10.44.20.3" style="text;strokeColor=none;align=center;fillColor=none;html=1;verticalAlign=middle;whiteSpace=wrap;rounded=0;" vertex="1" parent="1">
          <mxGeometry x="400" y="480" width="60" height="30" as="geometry" />
        </mxCell>
        <mxCell id="z33nc2aB1j3jtYtiSZTR-57" value="10.44.20.4" style="text;strokeColor=none;align=center;fillColor=none;html=1;verticalAlign=middle;whiteSpace=wrap;rounded=0;" vertex="1" parent="1">
          <mxGeometry x="550" y="490" width="60" height="30" as="geometry" />
        </mxCell>
        <mxCell id="z33nc2aB1j3jtYtiSZTR-58" value="10.44.22.3" style="text;strokeColor=none;align=center;fillColor=none;html=1;verticalAlign=middle;whiteSpace=wrap;rounded=0;" vertex="1" parent="1">
          <mxGeometry x="810" y="320" width="60" height="30" as="geometry" />
        </mxCell>
        <mxCell id="z33nc2aB1j3jtYtiSZTR-61" value="10.44.22.4" style="text;strokeColor=none;align=center;fillColor=none;html=1;verticalAlign=middle;whiteSpace=wrap;rounded=0;" vertex="1" parent="1">
          <mxGeometry x="970" y="320" width="60" height="30" as="geometry" />
        </mxCell>
        <mxCell id="z33nc2aB1j3jtYtiSZTR-62" value="10.44.21.27" style="text;strokeColor=none;align=center;fillColor=none;html=1;verticalAlign=middle;whiteSpace=wrap;rounded=0;" vertex="1" parent="1">
          <mxGeometry x="5" y="580" width="60" height="30" as="geometry" />
        </mxCell>
        <mxCell id="z33nc2aB1j3jtYtiSZTR-63" value="10.44.21.76" style="text;strokeColor=none;align=center;fillColor=none;html=1;verticalAlign=middle;whiteSpace=wrap;rounded=0;" vertex="1" parent="1">
          <mxGeometry x="115" y="580" width="60" height="30" as="geometry" />
        </mxCell>
        <mxCell id="z33nc2aB1j3jtYtiSZTR-64" value="10.44.21.29" style="text;strokeColor=none;align=center;fillColor=none;html=1;verticalAlign=middle;whiteSpace=wrap;rounded=0;" vertex="1" parent="1">
          <mxGeometry x="225" y="570" width="60" height="30" as="geometry" />
        </mxCell>
        <mxCell id="z33nc2aB1j3jtYtiSZTR-65" value="10.44.22.73" style="text;strokeColor=none;align=center;fillColor=none;html=1;verticalAlign=middle;whiteSpace=wrap;rounded=0;" vertex="1" parent="1">
          <mxGeometry x="800" y="460" width="60" height="30" as="geometry" />
        </mxCell>
        <mxCell id="z33nc2aB1j3jtYtiSZTR-66" value="10.44.22.103" style="text;strokeColor=none;align=center;fillColor=none;html=1;verticalAlign=middle;whiteSpace=wrap;rounded=0;" vertex="1" parent="1">
          <mxGeometry x="960" y="460" width="60" height="30" as="geometry" />
        </mxCell>
        <mxCell id="z33nc2aB1j3jtYtiSZTR-68" value="10.44.21.105" style="text;strokeColor=none;align=center;fillColor=none;html=1;verticalAlign=middle;whiteSpace=wrap;rounded=0;" vertex="1" parent="1">
          <mxGeometry x="5" y="680" width="60" height="30" as="geometry" />
        </mxCell>
        <mxCell id="z33nc2aB1j3jtYtiSZTR-69" value="10.44.21.106" style="text;strokeColor=none;align=center;fillColor=none;html=1;verticalAlign=middle;whiteSpace=wrap;rounded=0;" vertex="1" parent="1">
          <mxGeometry x="120" y="675" width="60" height="30" as="geometry" />
        </mxCell>
        <mxCell id="z33nc2aB1j3jtYtiSZTR-70" value="10.44.20.107" style="text;strokeColor=none;align=center;fillColor=none;html=1;verticalAlign=middle;whiteSpace=wrap;rounded=0;" vertex="1" parent="1">
          <mxGeometry x="240" y="675" width="60" height="30" as="geometry" />
        </mxCell>
        <mxCell id="z33nc2aB1j3jtYtiSZTR-71" value="10.44.22.211" style="text;strokeColor=none;align=center;fillColor=none;html=1;verticalAlign=middle;whiteSpace=wrap;rounded=0;" vertex="1" parent="1">
          <mxGeometry x="745" y="600" width="60" height="30" as="geometry" />
        </mxCell>
        <mxCell id="z33nc2aB1j3jtYtiSZTR-72" value="10.44.22.187" style="text;strokeColor=none;align=center;fillColor=none;html=1;verticalAlign=middle;whiteSpace=wrap;rounded=0;" vertex="1" parent="1">
          <mxGeometry x="865" y="600" width="60" height="30" as="geometry" />
        </mxCell>
        <mxCell id="z33nc2aB1j3jtYtiSZTR-73" value="10.44.22.53" style="text;strokeColor=none;align=center;fillColor=none;html=1;verticalAlign=middle;whiteSpace=wrap;rounded=0;" vertex="1" parent="1">
          <mxGeometry x="980" y="600" width="60" height="30" as="geometry" />
        </mxCell>
        <mxCell id="z33nc2aB1j3jtYtiSZTR-74" value="10.44.21.17" style="text;strokeColor=none;align=center;fillColor=none;html=1;verticalAlign=middle;whiteSpace=wrap;rounded=0;" vertex="1" parent="1">
          <mxGeometry x="5" y="790" width="60" height="30" as="geometry" />
        </mxCell>
        <mxCell id="z33nc2aB1j3jtYtiSZTR-75" value="10.44.21.107" style="text;strokeColor=none;align=center;fillColor=none;html=1;verticalAlign=middle;whiteSpace=wrap;rounded=0;" vertex="1" parent="1">
          <mxGeometry x="125" y="790" width="60" height="30" as="geometry" />
        </mxCell>
        <mxCell id="z33nc2aB1j3jtYtiSZTR-76" value="10.44.22.17" style="text;strokeColor=none;align=center;fillColor=none;html=1;verticalAlign=middle;whiteSpace=wrap;rounded=0;" vertex="1" parent="1">
          <mxGeometry x="740" y="720" width="60" height="30" as="geometry" />
        </mxCell>
        <mxCell id="z33nc2aB1j3jtYtiSZTR-77" value="10.44.21.18" style="text;strokeColor=none;align=center;fillColor=none;html=1;verticalAlign=middle;whiteSpace=wrap;rounded=0;" vertex="1" parent="1">
          <mxGeometry x="930" y="720" width="60" height="30" as="geometry" />
        </mxCell>
      </root>
    </mxGraphModel>
  </diagram>
</mxfile>
